<svg xmlns="http://www.w3.org/2000/svg" xmlns:xlink="http://www.w3.org/1999/xlink" width="1080" zoomAndPan="magnify" viewBox="0 0 810 809.999993" height="1080" preserveAspectRatio="xMidYMid meet" version="1.0"><defs><clipPath id="3fcca9bebf"><path d="M 160 135 L 709 135 L 709 714 L 160 714 Z M 160 135 " clip-rule="nonzero"/></clipPath><clipPath id="d03deefb5b"><path d="M 35.871094 604.734375 L 294.835938 0.105469 L 773.984375 205.328125 L 515.019531 809.953125 Z M 35.871094 604.734375 " clip-rule="nonzero"/></clipPath><clipPath id="b75c1434ae"><path d="M 35.871094 604.734375 L 294.835938 0.105469 L 773.984375 205.328125 L 515.019531 809.953125 Z M 35.871094 604.734375 " clip-rule="nonzero"/></clipPath></defs><rect x="-81" width="972" fill="#ffffff" y="-80.999999" height="971.999992" fill-opacity="1"/><rect x="-81" width="972" fill="#ffffff" y="-80.999999" height="971.999992" fill-opacity="1"/><g clip-path="url(#3fcca9bebf)"><g clip-path="url(#d03deefb5b)"><g clip-path="url(#b75c1434ae)"><path fill="#1f5c7a" d="M 201.855469 586.777344 C 247.894531 671.835938 359.070312 743.089844 469.261719 701.308594 C 579.449219 659.527344 602.261719 521.621094 653.90625 439.492188 C 705.550781 357.363281 752.074219 248.738281 639.054688 174.035156 C 526.082031 99.21875 472.761719 139.066406 321.90625 252.539062 C 171.050781 366.015625 113.46875 423.558594 201.855469 586.777344 Z M 201.855469 586.777344 " fill-opacity="1" fill-rule="nonzero"/></g></g></g></svg>