<svg xmlns="http://www.w3.org/2000/svg" xmlns:xlink="http://www.w3.org/1999/xlink" viewBox="0 0 50 50"><path d="M5 4C4.447 4 4 4.447 4 5L4 45C4 45.553 4.447 46 5 46L29.617188 46C29.251188 45.367 28.945266 44.699 28.697266 44L6 44L6 6L44 6L44 28.697266C44.699 28.944266 45.367 29.251187 46 29.617188L46 5C46 4.447 45.553 4 45 4L5 4 z M 21 9C19.354545 9 18 10.354545 18 12C18 13.645455 19.354545 15 21 15L29 15C30.645455 15 32 13.645455 32 12C32 10.354545 30.645455 9 29 9L21 9 z M 21 11L29 11C29.554545 11 30 11.445455 30 12C30 12.554545 29.554545 13 29 13L21 13C20.445455 13 20 12.554545 20 12C20 11.445455 20.445455 11 21 11 z M 40 30C34.5 30 30 34.5 30 40C30 45.5 34.5 50 40 50C45.5 50 50 45.5 50 40C50 34.5 45.5 30 40 30 z M 40 32C44.4 32 48 35.6 48 40C48 44.4 44.4 48 40 48C35.6 48 32 44.4 32 40C32 35.6 35.6 32 40 32 z M 39.699219 33.400391L39.699219 34.900391C38.799219 34.900391 36.900391 35.599219 36.900391 37.699219C36.900391 41.199219 41.400391 40.3 41.400391 42.5C41.400391 42.7 41.399609 43.699219 40.099609 43.699219C38.599609 43.699219 38.599609 42.3 38.599609 42L36.599609 42C36.599609 45 39.199609 45.300781 39.599609 45.300781L39.599609 46.699219L40.699219 46.699219L40.699219 45.300781C41.099219 45.300781 43.5 45 43.5 42.5C43.5 39 39 39.799219 39 37.699219C39 37.499219 38.999609 36.500391 40.099609 36.400391C41.299609 36.400391 41.400391 37.499609 41.400391 38.099609L43.400391 38.099609C43.400391 35.499609 41.500781 35.000391 40.800781 34.900391L40.800781 33.400391L39.699219 33.400391 z"/></svg>