<svg xmlns="http://www.w3.org/2000/svg" xmlns:xlink="http://www.w3.org/1999/xlink" viewBox="0 0 50 50"><path d="M15 5C8.8182113 5 4.5566406 7.1035156 4.5566406 7.1035156 A 1.0001 1.0001 0 0 0 4 8L4 11L3 11C1.3550302 11 0 12.35503 0 14L0 40C0 41.64497 1.3550302 43 3 43L22.779297 43C23.328373 43.609333 24.115084 44 25 44C25.884916 44 26.671627 43.609333 27.220703 43L47 43C48.64497 43 50 41.64497 50 40L50 14C50 12.35503 48.64497 11 47 11L46 11L46 8 A 1.0001 1.0001 0 0 0 45.443359 7.1035156C45.443359 7.1035156 41.181789 5 35 5C29.718051 5 26.017672 6.4650278 25 6.9121094C23.982328 6.4650278 20.281949 5 15 5 z M 15 7C20.12707 7 23.295435 8.3742866 24 8.6953125L24 37.578125C22.51841 36.98568 19.663029 36 15 36C10.336971 36 7.4815897 36.98568 6 37.578125L6 12.167969 A 1.0001 1.0001 0 0 0 6 11.841797L6 8.6953125C6.7045646 8.3742866 9.87293 7 15 7 z M 35 7C40.12707 7 43.295435 8.3742866 44 8.6953125L44 11.832031 A 1.0001 1.0001 0 0 0 44 12.158203L44 37.578125C42.51841 36.98568 39.663029 36 35 36C30.336971 36 27.48159 36.98568 26 37.578125L26 8.6953125C26.704565 8.3742866 29.87293 7 35 7 z M 34 11L34 13.085938C32.285589 13.362889 31.169784 14.321403 30.628906 15.279297C29.988564 16.413342 30 17.542969 30 17.542969C30 18.964265 30.714063 20.097044 31.619141 20.833984C32.524219 21.570925 33.597025 22.024695 34.595703 22.466797C35.594381 22.908899 36.516793 23.339719 37.111328 23.832031C37.705863 24.324343 38 24.77018 38 25.625C38 25.625 37.9916 26.210521 37.640625 26.802734C37.289684 27.394947 36.71875 28 35 28C33.333333 28 32.775274 27.31422 32.394531 26.552734C32.013788 25.791248 32 25 32 25L30 25C30 25 29.98621 26.208752 30.605469 27.447266C31.130176 28.496681 32.252207 29.59171 34 29.904297L34 32L36 32L36 29.917969C37.701972 29.654727 38.81166 28.746534 39.359375 27.822266C40.008434 26.726979 40 25.625 40 25.625C40 24.18832 39.294137 23.040797 38.388672 22.291016C37.483207 21.541234 36.405619 21.081945 35.404297 20.638672C34.402975 20.195399 33.475781 19.767606 32.880859 19.283203C32.285937 18.7988 32 18.371672 32 17.542969C32 17.542969 32.01144 16.898673 32.371094 16.261719C32.730752 15.624764 33.295167 15 35 15C36.666667 15 37.224726 15.68578 37.605469 16.447266C37.986212 17.208752 38 18 38 18L40 18C40 18 40.01379 16.791248 39.394531 15.552734C38.869824 14.503319 37.747793 13.40829 36 13.095703L36 11L34 11 z M 3 13L4 13L4 39 A 1.0001 1.0001 0 0 0 5.4472656 39.894531C5.4472656 39.894531 9.2242963 38 15 38C20.775704 38 24.552734 39.894531 24.552734 39.894531 A 1.0001 1.0001 0 0 0 24.638672 39.931641 A 1.0001 1.0001 0 0 0 24.716797 39.957031 A 1.0001 1.0001 0 0 0 24.740234 39.964844 A 1.0001 1.0001 0 0 0 24.929688 39.998047 A 1.0001 1.0001 0 0 0 25.03125 40 A 1.0001 1.0001 0 0 0 25.037109 40 A 1.0001 1.0001 0 0 0 25.136719 39.990234 A 1.0001 1.0001 0 0 0 25.226562 39.974609 A 1.0001 1.0001 0 0 0 25.234375 39.972656 A 1.0001 1.0001 0 0 0 25.244141 39.970703 A 1.0001 1.0001 0 0 0 25.447266 39.894531C25.447266 39.894531 29.224296 38 35 38C40.775704 38 44.552734 39.894531 44.552734 39.894531 A 1.0001 1.0001 0 0 0 46 39L46 13L47 13C47.56503 13 48 13.43497 48 14L48 40C48 40.56503 47.56503 41 47 41L3 41C2.4349698 41 2 40.56503 2 40L2 14C2 13.43497 2.4349698 13 3 13 z"/></svg>