<svg xmlns="http://www.w3.org/2000/svg" xmlns:xlink="http://www.w3.org/1999/xlink" viewBox="0 0 48 48"><path d="M14.5 5C9.2710594 5 5 9.2710634 5 14.5C5 19.728937 9.2710594 24 14.5 24C16.830242 24 18.9665 23.147359 20.623047 21.744141L30.378906 31.5L25.439453 36.439453 A 1.50015 1.50015 0 1 0 27.560547 38.560547L32.5 33.621094L35.878906 37L32.439453 40.439453 A 1.50015 1.50015 0 1 0 34.560547 42.560547L38 39.121094L40.439453 41.560547 A 1.50015 1.50015 0 1 0 42.560547 39.439453L39.234375 36.113281 A 1.50015 1.50015 0 0 0 38.888672 35.767578L33.734375 30.613281 A 1.50015 1.50015 0 0 0 33.388672 30.267578L22.582031 19.460938C23.475106 18.013915 24 16.317708 24 14.5C24 9.2710634 19.728941 5 14.5 5 z M 14.5 8C18.107621 8 21 10.892381 21 14.5C21 15.968914 20.5152 17.315597 19.703125 18.400391 A 1.50015 1.50015 0 0 0 19.255859 18.935547C18.071877 20.205446 16.385984 21 14.5 21C10.892379 21 8 18.107619 8 14.5C8 10.892381 10.892379 8 14.5 8 z"/></svg>