<svg width="803" height="967" viewBox="0 0 803 967" fill="none" xmlns="http://www.w3.org/2000/svg">
<path d="M942.993 135.137C1040.79 210.671 1116.75 294.156 1181.32 395.929C1245.88 497.701 1298.1 617.761 1250.63 702.041C1203.15 786.322 1055.03 834.028 931.599 878.553C808.164 923.079 708.467 965.219 608.77 966.014C508.123 966.809 407.476 925.464 301.133 876.168C195.738 826.077 83.6977 768.035 33.3744 682.959C-17.8985 597.089 -7.45401 484.185 46.6673 395.929C101.738 308.468 200.486 244.86 302.082 170.121C402.729 95.3817 506.224 9.51108 616.366 0.764997C727.457 -7.98108 845.194 59.6023 942.993 135.137Z" fill="#1C5D7C"/>
</svg>
